<svg width="944" height="376" viewBox="0 0 944 376" fill="none" xmlns="http://www.w3.org/2000/svg">
<path d="M188.505 328.422C151.374 328.422 115.765 313.672 89.5097 287.417C63.2546 261.162 48.5046 225.552 48.5046 188.422C48.5046 151.292 63.2546 115.682 89.5097 89.4269C115.765 63.1718 151.374 48.4219 188.505 48.4219V0.921875C84.9746 0.921875 0.974609 84.8619 0.974609 188.422C0.974609 291.982 84.9246 375.922 188.475 375.922L188.505 328.422Z" fill="url(#paint0_linear_5997_439)"/>
<path d="M188.504 233.422C213.357 233.422 233.504 213.275 233.504 188.422C233.504 163.569 213.357 143.422 188.504 143.422C163.651 143.422 143.504 163.569 143.504 188.422C143.504 213.275 163.651 233.422 188.504 233.422Z" fill="url(#paint1_linear_5997_439)"/>
<path d="M188.504 48.4219V95.9219C213.036 95.9219 236.564 105.667 253.911 123.014C271.258 140.362 281.004 163.889 281.004 188.422C281.004 212.954 271.258 236.482 253.911 253.829C236.564 271.176 213.036 280.922 188.504 280.922V328.422C225.634 328.422 261.244 313.672 287.499 287.417C313.754 261.162 328.504 225.552 328.504 188.422C328.504 151.292 313.754 115.682 287.499 89.4269C261.244 63.1718 225.634 48.4219 188.504 48.4219V48.4219Z" fill="url(#paint2_linear_5997_439)"/>
<path d="M188.505 233.422C179.604 233.422 170.904 230.783 163.504 225.838C156.104 220.893 150.336 213.865 146.93 205.643C143.524 197.42 142.633 188.372 144.369 179.643C146.106 170.914 150.391 162.895 156.685 156.602C162.978 150.309 170.996 146.023 179.726 144.287C188.455 142.55 197.503 143.441 205.725 146.847C213.948 150.253 220.976 156.021 225.921 163.421C230.865 170.821 233.505 179.522 233.505 188.422H280.975C280.975 170.127 275.55 152.243 265.386 137.032C255.222 121.82 240.775 109.964 223.873 102.963C206.971 95.962 188.372 94.1301 170.429 97.6993C152.486 101.268 136.004 110.078 123.067 123.015C110.131 135.951 101.321 152.433 97.752 170.376C94.1829 188.319 96.0147 206.918 103.016 223.82C110.017 240.722 121.873 255.169 137.084 265.333C152.296 275.497 170.18 280.922 188.475 280.922L188.505 233.422Z" fill="url(#paint3_linear_5997_439)"/>
<path d="M454.724 139.461L406.144 87.2309H398.504V188.421H419.814V131.421L451.744 164.941H457.744L489.674 131.421V188.421H510.974V87.2309H503.344L454.724 139.461ZM551.924 148.531V88.4209H530.624V189.601H538.874L601.034 128.301V188.421H622.344V87.2309H614.094L551.924 148.531ZM688.064 106.661C699.134 106.661 708.994 112.661 715.474 122.491L730.474 107.991C725.624 101.27 719.252 95.7925 711.879 92.007C704.506 88.2214 696.342 86.2352 688.054 86.2109C659.264 86.2109 634.994 108.911 634.994 138.421C634.994 167.931 659.264 190.631 688.054 190.631C696.343 190.605 704.507 188.617 711.88 184.829C719.253 181.042 725.625 175.563 730.474 168.841L715.474 154.341C708.994 164.181 699.134 170.181 688.064 170.181C670.864 170.181 656.874 157.001 656.874 138.421C656.874 119.841 670.864 106.661 688.064 106.661ZM765.404 148.531V88.4209H744.104V189.601H752.344L814.514 128.301V188.421H835.814V87.2309H827.574L765.404 148.531ZM901.534 170.181C884.334 170.181 870.344 157.001 870.344 138.421C870.344 119.841 884.344 106.661 901.534 106.661C912.604 106.661 922.474 112.661 928.954 122.491L943.954 107.991C939.105 101.269 932.734 95.7905 925.36 92.0048C917.987 88.2191 909.822 86.2336 901.534 86.2109C872.744 86.2109 848.474 108.911 848.474 138.421C848.474 167.931 872.744 190.631 901.534 190.631C909.826 190.609 917.996 188.624 925.372 184.836C932.749 181.049 939.124 175.567 943.974 168.841L928.974 154.341C922.474 164.181 912.604 170.181 901.534 170.181V170.181Z" fill="#505569"/>
<path d="M625.725 251.45H625.595V228.45H620.715V259.45H625.145L642.145 236.45H642.235V259.45H647.105V228.45H642.675L625.725 251.45ZM653.045 232.85H662.355V259.42H667.225V232.85H676.525V228.42H653.045V232.85ZM601.665 255.43C598.732 255.257 595.976 253.97 593.961 251.833C591.946 249.695 590.823 246.868 590.823 243.93C590.823 240.992 591.946 238.166 593.961 236.028C595.976 233.89 598.732 232.603 601.665 232.43C603.425 232.406 605.167 232.78 606.762 233.525C608.357 234.269 609.763 235.365 610.875 236.73L614.285 233.94C612.755 232.074 610.829 230.572 608.646 229.544C606.462 228.517 604.078 227.989 601.665 228C592.365 228 585.275 235.09 585.275 243.95C585.275 252.81 592.365 259.89 601.665 259.89C604.12 259.891 606.546 259.346 608.766 258.297C610.986 257.247 612.946 255.718 614.505 253.82L611.095 251C609.957 252.4 608.518 253.525 606.885 254.292C605.253 255.059 603.468 255.448 601.665 255.43V255.43ZM515.745 242.77C516.911 242.222 517.894 241.35 518.577 240.257C519.26 239.165 519.613 237.898 519.595 236.61C519.595 232.18 515.825 228.42 510.295 228.42H497.895V259.42H510.975C516.975 259.42 521.165 255.21 521.165 250.34C521.111 248.684 520.567 247.081 519.603 245.733C518.638 244.386 517.295 243.355 515.745 242.77V242.77ZM502.745 232.63H510.275C510.844 232.602 511.413 232.691 511.948 232.889C512.482 233.088 512.97 233.393 513.383 233.787C513.796 234.18 514.125 234.653 514.349 235.177C514.574 235.701 514.69 236.265 514.69 236.835C514.69 237.405 514.574 237.97 514.349 238.494C514.125 239.018 513.796 239.491 513.383 239.884C512.97 240.277 512.482 240.582 511.948 240.781C511.413 240.98 510.844 241.068 510.275 241.04H502.745V232.63ZM510.975 255.21H502.785V245H510.975C512.325 245 513.619 245.536 514.574 246.491C515.528 247.446 516.065 248.74 516.065 250.09C516.065 251.44 515.528 252.735 514.574 253.689C513.619 254.644 512.325 255.18 510.975 255.18V255.21ZM580.155 238.38C580.155 232.85 575.725 228.38 569.745 228.38H557.345V259.38H562.215V248.35H569.745C575.705 248.35 580.135 243.92 580.135 238.38H580.155ZM569.745 243.92H562.215V232.85H569.745C570.491 232.818 571.237 232.938 571.936 233.202C572.635 233.466 573.274 233.868 573.813 234.385C574.353 234.903 574.782 235.523 575.075 236.211C575.369 236.898 575.52 237.638 575.52 238.385C575.52 239.133 575.369 239.872 575.075 240.559C574.782 241.247 574.353 241.868 573.813 242.385C573.274 242.902 572.635 243.305 571.936 243.568C571.237 243.832 570.491 243.952 569.745 243.92V243.92ZM550.745 254.99H533.225V245.56H546.735V241.13H533.225V232.85H550.225V228.42H528.355V259.42H550.715L550.745 254.99ZM483.975 236.39H484.065V259.39H488.935V228.39H484.505L467.595 251.39H467.455V228.39H462.585V259.39H466.975L483.975 236.39ZM407.375 251.23C406.175 253.66 404.715 255.3 401.755 255.3C400.887 255.293 400.023 255.176 399.185 254.95V259.2C400.195 259.603 401.277 259.797 402.365 259.77C406.705 259.77 409.675 257.25 411.805 252.55L422.655 228.42H417.655L410.045 245.73H409.975L400.625 228.42H395.225L407.585 250.92L407.375 251.23ZM433.375 245.91H448.675V259.42H453.545V228.42H448.675V241.48H433.395V228.42H428.525V259.42H433.395L433.375 245.91ZM704.845 255H687.355V245.57H700.855V241.14H687.355V232.86H704.355V228.43H682.475V259.43H704.845V255ZM718.845 259.43H723.715V232.85H732.975V228.42H709.545V232.85H718.845V259.43ZM520.075 279.43H513.875L499.975 294.48V279.42H495.105V310.42H499.975V301.12L504.845 295.8L514.975 310.42H520.975L508.125 292.26L520.075 279.43ZM476.555 296.74H476.475L467.125 279.43H461.725L474.075 301.93L473.905 302.24C472.705 304.67 471.245 306.31 468.275 306.31C467.407 306.302 466.543 306.184 465.705 305.96V310.21C466.719 310.614 467.804 310.808 468.895 310.78C473.235 310.78 476.205 308.26 478.335 303.56L489.185 279.43H484.185L476.555 296.74ZM928.685 276.11C933.115 276.11 935.865 273.11 935.865 269.46H932.145C932.097 270.344 931.712 271.177 931.07 271.786C930.427 272.395 929.575 272.734 928.69 272.734C927.804 272.734 926.952 272.395 926.31 271.786C925.667 271.177 925.282 270.344 925.235 269.46H921.515C921.515 273.09 924.255 276.1 928.685 276.1V276.11ZM418.685 292.49H403.385V279.42H398.505V310.42H403.385V296.91H418.655V310.42H423.535V279.42H418.655L418.685 292.49ZM441.835 279.43L429.435 310.43H434.435L437.535 302.43H451.265L454.365 310.43H459.555L447.145 279.43H441.835ZM439.285 298L444.335 285H444.415L449.415 298H439.285ZM937.415 279.4L920.495 302.4H920.365V279.4H915.485V310.4H919.915L936.915 287.4H937.005V310.4H941.875V279.4H937.415ZM531.845 302.4H531.705V279.4H526.835V310.4H531.265L548.265 287.4H548.355V310.4H553.225V279.4H548.795L531.845 302.4ZM831.025 279C828.896 278.95 826.778 279.324 824.797 280.103C822.815 280.881 821.008 282.047 819.482 283.532C817.957 285.018 816.743 286.793 815.912 288.754C815.082 290.714 814.651 292.821 814.645 294.95C814.645 303.81 821.725 310.89 831.025 310.89C840.325 310.89 847.415 303.81 847.415 294.95C847.415 286.09 840.325 279 831.025 279ZM831.025 306.46C828.746 306.46 826.518 305.784 824.623 304.518C822.729 303.252 821.252 301.452 820.381 299.346C819.509 297.241 819.281 294.924 819.727 292.689C820.172 290.454 821.27 288.401 822.882 286.791C824.494 285.18 826.548 284.084 828.783 283.64C831.019 283.197 833.335 283.426 835.44 284.3C837.545 285.173 839.343 286.652 840.608 288.547C841.873 290.443 842.547 292.671 842.545 294.95C842.551 296.463 842.258 297.962 841.68 299.361C841.103 300.759 840.254 302.029 839.183 303.097C838.111 304.165 836.838 305.009 835.438 305.581C834.037 306.154 832.537 306.442 831.025 306.43V306.46ZM759.445 279C757.316 278.95 755.199 279.324 753.217 280.103C751.235 280.881 749.428 282.047 747.902 283.532C746.377 285.018 745.163 286.793 744.332 288.754C743.502 290.714 743.071 292.821 743.065 294.95C743.065 303.81 750.145 310.89 759.445 310.89C768.745 310.89 775.835 303.81 775.835 294.95C775.835 286.09 768.745 279 759.445 279ZM759.445 306.46C757.167 306.458 754.942 305.781 753.049 304.515C751.157 303.249 749.682 301.45 748.811 299.346C747.94 297.242 747.712 294.927 748.156 292.694C748.6 290.46 749.696 288.409 751.305 286.798C752.915 285.187 754.966 284.089 757.199 283.643C759.432 283.197 761.747 283.423 763.852 284.292C765.956 285.161 767.756 286.635 769.024 288.527C770.292 290.418 770.971 292.643 770.975 294.92C770.985 296.436 770.694 297.94 770.118 299.342C769.542 300.745 768.693 302.019 767.62 303.09C766.547 304.161 765.272 305.008 763.868 305.582C762.464 306.155 760.961 306.443 759.445 306.43V306.46ZM854.445 310.46H859.315V283.85H874.375V279.42H854.465L854.445 310.46ZM885.125 302.46H884.975V279.46H880.105V310.46H884.525L901.525 287.46H901.615V310.46H906.485V279.46H902.055L885.125 302.46ZM786.785 288.73C786.425 303.56 784.125 306.22 781.245 306.22C780.416 306.207 779.595 306.058 778.815 305.78V310.21C779.709 310.645 780.69 310.871 781.685 310.87C787.495 310.87 791.125 306.87 791.565 288.73L791.695 283.86H802.695V310.43H807.565V279.43H787.025L786.785 288.73ZM619.735 283.86H629.035V310.43H633.975V283.85H643.275V279.42H619.755L619.735 283.86ZM580.055 302.46H579.975V279.46H575.105V310.46H579.535L596.535 287.46H596.625V310.46H601.495V279.46H596.975L580.055 302.46ZM704.055 279.46H698.345L690.855 290.66H690.765L683.285 279.46H677.485L687.665 294.34L676.595 310.46H682.305L690.675 297.92H690.765L699.135 310.46H704.975L693.905 294.2L704.055 279.46ZM654.055 296.6H667.565V292.17H654.055V283.89H671.055V279.46H649.185V310.46H671.545V306H654.055V296.6ZM731.165 292.52H715.885V279.42H710.975V310.42H715.845V296.91H731.125V310.42H735.995V279.42H731.125L731.165 292.52Z" fill="#505569"/>
<defs>
<linearGradient id="paint0_linear_5997_439" x1="79.6346" y1="359.642" x2="144.265" y2="-6.87812" gradientUnits="userSpaceOnUse">
<stop offset="0.05" stop-color="#0541F0"/>
<stop offset="0.21" stop-color="#126CF4"/>
<stop offset="0.44" stop-color="#22A2F9"/>
<stop offset="0.64" stop-color="#2DCAFC"/>
<stop offset="0.8" stop-color="#34E2FE"/>
<stop offset="0.9" stop-color="#37EBFF"/>
</linearGradient>
<linearGradient id="paint1_linear_5997_439" x1="156.684" y1="220.242" x2="220.324" y2="156.602" gradientUnits="userSpaceOnUse">
<stop offset="0.06" stop-color="#37EBFF"/>
<stop offset="0.19" stop-color="#36E7FF"/>
<stop offset="0.32" stop-color="#32DAFE"/>
<stop offset="0.45" stop-color="#2CC6FC"/>
<stop offset="0.58" stop-color="#23A9F9"/>
<stop offset="0.71" stop-color="#1883F6"/>
<stop offset="0.85" stop-color="#0B56F2"/>
<stop offset="0.9" stop-color="#0541F0"/>
</linearGradient>
<linearGradient id="paint2_linear_5997_439" x1="186.814" y1="327.802" x2="279.704" y2="72.5819" gradientUnits="userSpaceOnUse">
<stop offset="0.05" stop-color="#37EBFF"/>
<stop offset="0.16" stop-color="#2DC8FC"/>
<stop offset="0.34" stop-color="#1F98F8"/>
<stop offset="0.51" stop-color="#1472F4"/>
<stop offset="0.66" stop-color="#0C57F2"/>
<stop offset="0.8" stop-color="#0747F1"/>
<stop offset="0.9" stop-color="#0541F0"/>
</linearGradient>
<linearGradient id="paint3_linear_5997_439" x1="113.525" y1="244.252" x2="244.335" y2="113.432" gradientUnits="userSpaceOnUse">
<stop offset="0.11" stop-color="#0541F0"/>
<stop offset="0.89" stop-color="#37EBFF"/>
</linearGradient>
</defs>
</svg>
